# xmcd
#
# Track frame offsets: 
#        150
#        16430
#        31977
#        47392
#        63050
#        78327
#        93272
#        108520
#        124205
#        136497
#        150555
#        165862
#        178792
#        193795
#        209690
#
# Disc length: 2981 seconds
#
# Revision: 2
# Processed by: cddbd v1.5.2PL0 Copyright (c) Steve Scherf et al.
# Submitted via: ExactAudioCopy v0.95b4
#
DISCID=bf0ba30f
DTITLE=Glenn Miller - The Collection
DYEAR=1991
DGENRE=
TTITLE0=In The Mood
TTITLE1=Sunrise Serenade
TTITLE2=Moonlight Serenade
TTITLE3=Chattanooga Choo Choo
TTITLE4=American Patrol
TTITLE5=Pennsylvania Six-Five Thousand
TTITLE6=Kalamazoo
TTITLE7=Tuxedo Junction
TTITLE8=Runnin' Wild
TTITLE9=Juke Box Saturday Night
TTITLE10=Star Dust
TTITLE11=Stairway To The Stars
TTITLE12=My Prayer
TTITLE13=Serenade In Blue
TTITLE14=That Old Black Magic
EXTD=
EXTT0=
EXTT1=
EXTT2=
EXTT3=
EXTT4=
EXTT5=
EXTT6=
EXTT7=
EXTT8=
EXTT9=
EXTT10=
EXTT11=
EXTT12=
EXTT13=
EXTT14=
PLAYORDER=
